<svg width="24" height="22" viewBox="0 0 24 22" fill="none" xmlns="http://www.w3.org/2000/svg">
<path fill-rule="evenodd" clip-rule="evenodd" d="M9.76069 14.3158C9.56869 14.3158 9.37669 14.2489 9.23069 14.1141C8.49269 13.4385 8.08569 12.5402 8.08569 11.585C8.08569 9.60502 9.84169 7.99443 11.9997 7.99443C13.0377 7.99443 14.0457 8.37852 14.7647 9.0486C15.0547 9.31993 15.0517 9.75443 14.7557 10.0203C14.4607 10.2879 13.9867 10.2834 13.6957 10.0139C13.2567 9.6041 12.6387 9.36943 11.9997 9.36943C10.6687 9.36943 9.58569 10.3631 9.58569 11.585C9.58569 12.1726 9.83669 12.7263 10.2907 13.1424C10.5837 13.411 10.5837 13.8455 10.2917 14.1141C10.1447 14.2489 9.95269 14.3158 9.76069 14.3158" fill="#664DE5"/>
<path fill-rule="evenodd" clip-rule="evenodd" d="M12.5673 15.1169C12.2123 15.1169 11.8963 14.8841 11.8303 14.5523C11.7563 14.1792 12.0263 13.8208 12.4343 13.7529C13.4143 13.5898 14.1903 12.8766 14.3663 11.9774C14.4403 11.6043 14.8303 11.3586 15.2373 11.4228C15.6453 11.4897 15.9163 11.8472 15.8433 12.2212C15.5563 13.6814 14.2943 14.8401 12.7023 15.1059C12.6573 15.1133 12.6113 15.1169 12.5673 15.1169" fill="#664DE5"/>
<mask id="mask0_9_251" style="mask-type:luminance" maskUnits="userSpaceOnUse" x="2" y="4" width="17" height="14">
<path fill-rule="evenodd" clip-rule="evenodd" d="M2 4.2391H18.0862V17.1624H2V4.2391Z" fill="white"/>
</mask>
<g mask="url(#mask0_9_251)">
<path fill-rule="evenodd" clip-rule="evenodd" d="M6.6545 17.1624C6.4925 17.1624 6.3295 17.1138 6.1915 17.0157C4.5005 15.7984 3.0715 14.0136 2.0615 11.8558C1.9795 11.6816 1.9795 11.4855 2.0615 11.3122C3.0825 9.14522 4.5205 7.3513 6.2205 6.12572C9.6865 3.6113 14.3005 3.60305 17.8015 6.14405C18.1265 6.37963 18.1815 6.8123 17.9245 7.11022C17.6665 7.4063 17.1965 7.45855 16.8705 7.22205C13.9045 5.06972 10.0835 5.07705 7.1495 7.20555C5.7135 8.24138 4.4805 9.75022 3.5705 11.5854C4.4715 13.4096 5.6935 14.9092 7.1185 15.9341C7.4445 16.1687 7.5005 16.6014 7.2445 16.8993C7.0965 17.0716 6.8765 17.1624 6.6545 17.1624" fill="#664DE5"/>
</g>
<mask id="mask1_9_251" style="mask-type:luminance" maskUnits="userSpaceOnUse" x="8" y="8" width="14" height="11">
<path fill-rule="evenodd" clip-rule="evenodd" d="M8.71753 8.01276H22.0001V18.9653H8.71753V8.01276Z" fill="white"/>
</mask>
<g mask="url(#mask1_9_251)">
<path fill-rule="evenodd" clip-rule="evenodd" d="M12.0002 18.9653C11.0632 18.9653 10.1312 18.826 9.23116 18.5519C8.83816 18.4318 8.62516 18.0422 8.75616 17.682C8.88716 17.3208 9.31016 17.1292 9.70516 17.2465C10.4522 17.4748 11.2242 17.5903 12.0002 17.5903C15.4282 17.5903 18.5612 15.3518 20.4302 11.5834C19.9742 10.6676 19.4432 9.83803 18.8492 9.11387C18.6002 8.81045 18.6662 8.3787 18.9972 8.15045C19.3272 7.9222 19.7982 7.98454 20.0472 8.28704C20.7712 9.16795 21.4072 10.1864 21.9382 11.3102C22.0212 11.4844 22.0212 11.6824 21.9382 11.8556C19.8422 16.3079 16.1272 18.9653 12.0002 18.9653" fill="#664DE5"/>
</g>
<mask id="mask2_9_251" style="mask-type:luminance" maskUnits="userSpaceOnUse" x="3" y="3" width="18" height="17">
<path fill-rule="evenodd" clip-rule="evenodd" d="M3.36353 3.66703H20.637V19.5006H3.36353V3.66703Z" fill="white"/>
</mask>
<g mask="url(#mask2_9_251)">
<path fill-rule="evenodd" clip-rule="evenodd" d="M4.11328 19.5006C3.92128 19.5006 3.72928 19.4337 3.58328 19.299C3.29028 19.0304 3.29028 18.5959 3.58328 18.3273L19.3573 3.86778C19.6503 3.5992 20.1243 3.5992 20.4173 3.86778C20.7103 4.13637 20.7103 4.57178 20.4173 4.84037L4.64328 19.299C4.49728 19.4337 4.30528 19.5006 4.11328 19.5006" fill="#664DE5"/>
</g>
</svg>
