<svg width="24" height="24" viewBox="0 0 24 24" fill="none" xmlns="http://www.w3.org/2000/svg">
<path fill-rule="evenodd" clip-rule="evenodd" d="M11.9996 9.83786C10.6696 9.83786 9.58862 10.8297 9.58862 12.0489C9.58862 13.2671 10.6696 14.258 11.9996 14.258C13.3296 14.258 14.4116 13.2671 14.4116 12.0489C14.4116 10.8297 13.3296 9.83786 11.9996 9.83786M11.9996 15.633C9.84262 15.633 8.08862 14.0252 8.08862 12.0489C8.08862 10.0716 9.84262 8.46286 11.9996 8.46286C14.1566 8.46286 15.9116 10.0716 15.9116 12.0489C15.9116 14.0252 14.1566 15.633 11.9996 15.633" fill="#664DE5"/>
<mask id="mask0_9_122" style="mask-type:luminance" maskUnits="userSpaceOnUse" x="2" y="4" width="20" height="16">
<path fill-rule="evenodd" clip-rule="evenodd" d="M2.00012 4.66685H22V19.4298H2.00012V4.66685Z" fill="white"/>
</mask>
<g mask="url(#mask0_9_122)">
<path fill-rule="evenodd" clip-rule="evenodd" d="M3.56987 12.0481C5.42987 15.8147 8.56287 18.0541 11.9999 18.055C15.4369 18.0541 18.5699 15.8147 20.4299 12.0481C18.5699 8.28246 15.4369 6.04304 11.9999 6.04213C8.56387 6.04304 5.42987 8.28246 3.56987 12.0481V12.0481ZM12.0019 19.43H11.9979H11.9969C7.86087 19.4273 4.14687 16.7699 2.06087 12.3195C1.97987 12.1462 1.97987 11.95 2.06087 11.7768C4.14687 7.32729 7.86187 4.66988 11.9969 4.66713C11.9989 4.66621 11.9989 4.66621 11.9999 4.66713C12.0019 4.66621 12.0019 4.66621 12.0029 4.66713C16.1389 4.66988 19.8529 7.32729 21.9389 11.7768C22.0209 11.95 22.0209 12.1462 21.9389 12.3195C19.8539 16.7699 16.1389 19.4273 12.0029 19.43H12.0019Z" fill="#664DE5"/>
</g>
</svg>
